<mxfile host="app.diagrams.net" modified="2022-03-22T06:05:33.471Z" agent="5.0 (Windows NT 6.1; Win64; x64) AppleWebKit/537.36 (KHTML, like Gecko) Chrome/99.0.4844.51 Safari/537.36" etag="9Rdblz9d3XZGllEH7yLb" version="17.1.3" type="github">
  <diagram id="R2lEEEUBdFMjLlhIrx00" name="Page-1">
    <mxGraphModel dx="1288" dy="715" grid="1" gridSize="10" guides="1" tooltips="1" connect="1" arrows="1" fold="1" page="1" pageScale="1" pageWidth="850" pageHeight="1100" math="0" shadow="0" extFonts="Permanent Marker^https://fonts.googleapis.com/css?family=Permanent+Marker">
      <root>
        <mxCell id="0" />
        <mxCell id="1" parent="0" />
        <mxCell id="aG7Sd2yoNI7WiTqorTPE-1" value="id" style="ellipse;whiteSpace=wrap;html=1;" vertex="1" parent="1">
          <mxGeometry x="190" y="70" width="100" height="50" as="geometry" />
        </mxCell>
        <mxCell id="aG7Sd2yoNI7WiTqorTPE-3" value="Firstname" style="ellipse;whiteSpace=wrap;html=1;" vertex="1" parent="1">
          <mxGeometry x="290" y="120" width="110" height="50" as="geometry" />
        </mxCell>
        <mxCell id="aG7Sd2yoNI7WiTqorTPE-4" value="Username" style="ellipse;whiteSpace=wrap;html=1;" vertex="1" parent="1">
          <mxGeometry x="100" y="120" width="110" height="50" as="geometry" />
        </mxCell>
        <mxCell id="aG7Sd2yoNI7WiTqorTPE-5" value="Lastname" style="ellipse;whiteSpace=wrap;html=1;" vertex="1" parent="1">
          <mxGeometry x="370" y="170" width="120" height="60" as="geometry" />
        </mxCell>
        <mxCell id="aG7Sd2yoNI7WiTqorTPE-6" value="about" style="ellipse;whiteSpace=wrap;html=1;" vertex="1" parent="1">
          <mxGeometry x="60" y="190" width="120" height="50" as="geometry" />
        </mxCell>
        <mxCell id="aG7Sd2yoNI7WiTqorTPE-8" value="password" style="ellipse;whiteSpace=wrap;html=1;" vertex="1" parent="1">
          <mxGeometry x="430" y="250" width="120" height="60" as="geometry" />
        </mxCell>
        <mxCell id="aG7Sd2yoNI7WiTqorTPE-9" value="Email" style="ellipse;whiteSpace=wrap;html=1;" vertex="1" parent="1">
          <mxGeometry x="60" y="260" width="120" height="60" as="geometry" />
        </mxCell>
        <mxCell id="aG7Sd2yoNI7WiTqorTPE-10" value="er(Patient,Doctor,Admin" style="rounded=0;whiteSpace=wrap;html=1;" vertex="1" parent="1">
          <mxGeometry x="220" y="210" width="140" height="60" as="geometry" />
        </mxCell>
        <mxCell id="aG7Sd2yoNI7WiTqorTPE-11" value="Phone" style="ellipse;whiteSpace=wrap;html=1;" vertex="1" parent="1">
          <mxGeometry x="100" y="350" width="120" height="60" as="geometry" />
        </mxCell>
        <mxCell id="aG7Sd2yoNI7WiTqorTPE-12" value="Enable/Disable" style="ellipse;whiteSpace=wrap;html=1;" vertex="1" parent="1">
          <mxGeometry x="420" y="340" width="130" height="60" as="geometry" />
        </mxCell>
        <mxCell id="aG7Sd2yoNI7WiTqorTPE-13" value="Has" style="rhombus;whiteSpace=wrap;html=1;" vertex="1" parent="1">
          <mxGeometry x="140" y="460" width="80" height="80" as="geometry" />
        </mxCell>
        <mxCell id="aG7Sd2yoNI7WiTqorTPE-14" value="UserRoleld" style="ellipse;whiteSpace=wrap;html=1;" vertex="1" parent="1">
          <mxGeometry x="440" y="440" width="120" height="60" as="geometry" />
        </mxCell>
        <mxCell id="aG7Sd2yoNI7WiTqorTPE-15" value="Userld" style="ellipse;whiteSpace=wrap;html=1;" vertex="1" parent="1">
          <mxGeometry x="580" y="420" width="120" height="60" as="geometry" />
        </mxCell>
        <mxCell id="aG7Sd2yoNI7WiTqorTPE-16" value="Roleld" style="ellipse;whiteSpace=wrap;html=1;" vertex="1" parent="1">
          <mxGeometry x="690" y="480" width="120" height="50" as="geometry" />
        </mxCell>
        <mxCell id="aG7Sd2yoNI7WiTqorTPE-17" value="Roleld" style="ellipse;whiteSpace=wrap;html=1;" vertex="1" parent="1">
          <mxGeometry x="650" y="230" width="110" height="60" as="geometry" />
        </mxCell>
        <mxCell id="aG7Sd2yoNI7WiTqorTPE-18" value="Role" style="ellipse;whiteSpace=wrap;html=1;" vertex="1" parent="1">
          <mxGeometry x="780" y="320" width="110" height="60" as="geometry" />
        </mxCell>
        <mxCell id="aG7Sd2yoNI7WiTqorTPE-19" value="Role" style="rounded=0;whiteSpace=wrap;html=1;" vertex="1" parent="1">
          <mxGeometry x="840" y="450" width="80" height="40" as="geometry" />
        </mxCell>
        <mxCell id="aG7Sd2yoNI7WiTqorTPE-20" value="Has" style="rhombus;whiteSpace=wrap;html=1;" vertex="1" parent="1">
          <mxGeometry x="860" y="540" width="70" height="60" as="geometry" />
        </mxCell>
        <mxCell id="aG7Sd2yoNI7WiTqorTPE-21" value="User_Role" style="rounded=0;whiteSpace=wrap;html=1;" vertex="1" parent="1">
          <mxGeometry x="490" y="580" width="90" height="50" as="geometry" />
        </mxCell>
      </root>
    </mxGraphModel>
  </diagram>
</mxfile>
